<svg xmlns="http://www.w3.org/2000/svg" xmlns:xlink="http://www.w3.org/1999/xlink"  zoomAndPan="magnify" viewBox="0 0 375 374.999991" height="500" preserveAspectRatio="xMidYMid meet" version="1.0"><defs><g/><clipPath id="a23313245a"><path d="M 6.566406 122.871094 L 83.816406 122.871094 L 83.816406 187.371094 L 6.566406 187.371094 Z M 6.566406 122.871094 " clip-rule="nonzero"/></clipPath></defs><g clip-path="url(#a23313245a)"><path fill="#000556" d="M 7.035156 125.105469 L 38.773438 156.652344 L 27.417969 185.539062 C 27.203125 186.089844 27.398438 186.71875 27.890625 187.046875 C 28.101562 187.1875 28.347656 187.257812 28.589844 187.257812 C 28.90625 187.257812 29.21875 187.140625 29.460938 186.90625 L 45.175781 171.683594 L 72.886719 157.464844 L 72.890625 157.464844 L 72.898438 157.460938 C 72.914062 157.453125 72.929688 157.445312 72.945312 157.4375 C 72.945312 157.433594 72.949219 157.433594 72.949219 157.433594 C 72.953125 157.429688 72.957031 157.429688 72.957031 157.425781 C 72.964844 157.421875 72.976562 157.417969 72.984375 157.414062 C 72.988281 157.410156 72.992188 157.40625 73 157.402344 C 73.003906 157.398438 73.011719 157.394531 73.019531 157.390625 C 73.019531 157.390625 73.023438 157.386719 73.027344 157.382812 C 73.027344 157.382812 73.03125 157.382812 73.03125 157.378906 C 73.03125 157.378906 73.035156 157.378906 73.035156 157.378906 C 73.039062 157.378906 73.039062 157.375 73.039062 157.375 L 73.042969 157.375 C 73.042969 157.371094 73.046875 157.371094 73.050781 157.367188 C 73.050781 157.367188 73.054688 157.363281 73.054688 157.363281 C 73.058594 157.359375 73.0625 157.359375 73.066406 157.355469 C 73.078125 157.347656 73.089844 157.339844 73.101562 157.328125 C 73.101562 157.328125 73.105469 157.324219 73.105469 157.324219 C 73.109375 157.324219 73.109375 157.324219 73.109375 157.320312 C 73.113281 157.320312 73.113281 157.320312 73.117188 157.316406 C 73.117188 157.316406 73.121094 157.3125 73.125 157.3125 C 73.128906 157.308594 73.132812 157.304688 73.136719 157.300781 C 73.140625 157.296875 73.140625 157.296875 73.144531 157.292969 C 73.144531 157.292969 73.148438 157.292969 73.148438 157.289062 C 73.15625 157.28125 73.164062 157.277344 73.171875 157.269531 C 73.175781 157.265625 73.175781 157.261719 73.179688 157.261719 C 73.183594 157.257812 73.183594 157.257812 73.1875 157.253906 C 73.1875 157.253906 73.191406 157.25 73.191406 157.25 C 73.195312 157.246094 73.199219 157.246094 73.199219 157.242188 L 73.203125 157.242188 C 73.207031 157.238281 73.207031 157.234375 73.210938 157.230469 C 73.214844 157.226562 73.214844 157.226562 73.21875 157.222656 C 73.226562 157.214844 73.234375 157.207031 73.242188 157.199219 C 73.242188 157.199219 73.242188 157.195312 73.246094 157.195312 C 73.25 157.191406 73.25 157.191406 73.253906 157.1875 C 73.257812 157.183594 73.261719 157.179688 73.261719 157.175781 C 73.269531 157.167969 73.277344 157.160156 73.285156 157.152344 C 73.292969 157.140625 73.296875 157.132812 73.304688 157.125 C 73.308594 157.121094 73.308594 157.117188 73.3125 157.117188 C 73.316406 157.109375 73.324219 157.101562 73.328125 157.09375 C 73.339844 157.078125 73.351562 157.066406 73.359375 157.050781 C 73.371094 157.035156 73.382812 157.015625 73.394531 157 C 73.410156 156.972656 73.425781 156.945312 73.441406 156.917969 C 73.445312 156.910156 73.449219 156.898438 73.453125 156.894531 C 73.460938 156.875 73.46875 156.855469 73.476562 156.835938 C 73.484375 156.824219 73.488281 156.8125 73.492188 156.800781 C 73.492188 156.800781 73.492188 156.800781 73.492188 156.796875 C 73.496094 156.785156 73.503906 156.773438 73.507812 156.761719 C 73.507812 156.757812 73.511719 156.75 73.511719 156.742188 C 73.519531 156.722656 73.527344 156.703125 73.53125 156.683594 C 73.53125 156.683594 73.53125 156.683594 73.53125 156.679688 C 73.53125 156.679688 73.53125 156.679688 73.535156 156.679688 C 73.535156 156.679688 73.535156 156.675781 73.535156 156.675781 C 73.539062 156.660156 73.542969 156.644531 73.546875 156.625 C 73.550781 156.617188 73.550781 156.605469 73.554688 156.59375 C 73.558594 156.574219 73.5625 156.550781 73.566406 156.53125 C 73.566406 156.523438 73.566406 156.511719 73.570312 156.503906 C 73.574219 156.480469 73.574219 156.453125 73.578125 156.425781 C 73.578125 156.398438 73.578125 156.371094 73.578125 156.34375 L 73.578125 143.078125 L 82.460938 143.078125 C 83 143.078125 83.476562 142.734375 83.652344 142.222656 C 83.824219 141.707031 83.648438 141.144531 83.21875 140.816406 L 73.082031 133.105469 C 73.074219 133.097656 73.066406 133.09375 73.054688 133.085938 C 73.039062 133.070312 73.019531 133.058594 73 133.046875 C 72.953125 133.019531 72.910156 132.992188 72.863281 132.972656 C 72.847656 132.964844 72.832031 132.957031 72.816406 132.949219 C 72.800781 132.945312 72.785156 132.9375 72.769531 132.929688 C 72.753906 132.925781 72.738281 132.917969 72.722656 132.914062 C 72.707031 132.910156 72.691406 132.90625 72.675781 132.902344 C 72.632812 132.886719 72.589844 132.878906 72.546875 132.871094 C 72.527344 132.867188 72.507812 132.863281 72.488281 132.859375 C 72.457031 132.855469 72.425781 132.855469 72.394531 132.851562 C 72.375 132.851562 72.351562 132.851562 72.328125 132.851562 L 72.324219 132.851562 C 72.292969 132.851562 72.261719 132.851562 72.234375 132.855469 L 72.230469 132.855469 C 72.203125 132.855469 72.179688 132.859375 72.15625 132.863281 C 72.148438 132.863281 72.136719 132.863281 72.128906 132.867188 C 72.113281 132.867188 72.097656 132.871094 72.082031 132.875 C 72.066406 132.875 72.054688 132.878906 72.039062 132.882812 C 72.039062 132.882812 72.039062 132.882812 72.035156 132.882812 C 72.011719 132.890625 71.988281 132.894531 71.960938 132.902344 C 71.9375 132.910156 71.910156 132.921875 71.882812 132.929688 C 71.875 132.933594 71.871094 132.933594 71.863281 132.9375 C 71.839844 132.945312 71.816406 132.957031 71.792969 132.96875 C 71.792969 132.96875 71.789062 132.96875 71.789062 132.96875 C 71.761719 132.980469 71.734375 132.996094 71.710938 133.011719 C 71.707031 133.011719 71.707031 133.011719 71.707031 133.011719 C 71.679688 133.027344 71.65625 133.042969 71.628906 133.058594 C 71.621094 133.0625 71.613281 133.070312 71.609375 133.074219 L 59.164062 141.378906 L 41.132812 123.324219 C 41.121094 123.3125 41.109375 123.300781 41.097656 123.289062 C 41.09375 123.285156 41.089844 123.28125 41.085938 123.28125 C 41.070312 123.265625 41.054688 123.253906 41.039062 123.238281 C 41.023438 123.226562 41.007812 123.214844 40.988281 123.199219 C 40.972656 123.1875 40.957031 123.175781 40.9375 123.164062 C 40.914062 123.148438 40.886719 123.132812 40.859375 123.117188 C 40.84375 123.109375 40.832031 123.101562 40.816406 123.09375 C 40.804688 123.085938 40.789062 123.082031 40.777344 123.074219 C 40.75 123.0625 40.722656 123.046875 40.691406 123.039062 C 40.679688 123.03125 40.664062 123.027344 40.652344 123.023438 C 40.636719 123.019531 40.621094 123.011719 40.605469 123.007812 C 40.585938 123.003906 40.5625 122.996094 40.539062 122.992188 C 40.496094 122.980469 40.449219 122.972656 40.40625 122.964844 C 40.382812 122.964844 40.359375 122.960938 40.335938 122.960938 C 40.304688 122.957031 40.277344 122.953125 40.246094 122.953125 L 7.921875 122.953125 C 7.410156 122.953125 6.953125 123.261719 6.757812 123.734375 C 6.566406 124.207031 6.675781 124.75 7.035156 125.105469 Z M 73.578125 136.644531 L 78.730469 140.5625 L 73.578125 140.5625 Z M 71.066406 153.304688 L 60.976562 143.199219 L 61.683594 142.726562 L 61.683594 142.722656 L 71.066406 136.460938 Z M 69.289062 155.082031 L 41.5 155.082031 L 41.5 127.253906 L 58.113281 143.890625 Z M 41.921875 157.601562 L 67.117188 157.601562 L 60.050781 161.226562 L 45.214844 168.835938 Z M 40.070312 160.21875 L 41.285156 164.359375 L 43.015625 170.273438 L 32.007812 180.9375 L 31.878906 181.0625 Z M 10.96875 125.472656 L 38.988281 125.472656 L 38.988281 153.320312 Z M 10.96875 125.472656 " fill-opacity="1" fill-rule="nonzero"/></g><path fill="#007daf" d="M 73.578125 136.644531 L 73.578125 136.65625 L 76.597656 140.5625 L 78.730469 140.5625 Z M 73.578125 136.644531 " fill-opacity="1" fill-rule="nonzero"/><path fill="#00a583" d="M 61.683594 142.722656 L 71.066406 141.535156 L 71.066406 136.460938 Z M 61.683594 142.722656 " fill-opacity="1" fill-rule="nonzero"/><path fill="#f06057" d="M 41.5 127.253906 L 41.5 127.539062 L 60.453125 155.082031 L 69.289062 155.082031 L 58.113281 143.890625 Z M 41.5 127.253906 " fill-opacity="1" fill-rule="nonzero"/><path fill="#d9c71b" d="M 43.90625 157.601562 L 60.050781 161.226562 L 67.117188 157.601562 Z M 43.90625 157.601562 " fill-opacity="1" fill-rule="nonzero"/><path fill="#fc8d3c" d="M 31.878906 181.0625 L 32.007812 180.9375 L 41.285156 164.359375 L 40.070312 160.21875 Z M 31.878906 181.0625 " fill-opacity="1" fill-rule="nonzero"/><path fill="#77bb4c" d="M 12.714844 125.472656 L 38.988281 133.851562 L 38.988281 125.472656 Z M 12.714844 125.472656 " fill-opacity="1" fill-rule="nonzero"/><g fill="#000556" fill-opacity="1"><g transform="translate(45.322377, 205.269551)"><g><path d="M 19.453125 0 L 17.9375 -4.828125 L 8.28125 -4.828125 L 6.765625 0 L -0.828125 0 L 9.15625 -27.59375 L 17.015625 -27.59375 L 26.984375 0 Z M 10.0625 -10.53125 L 16.1875 -10.53125 L 13.109375 -20.28125 Z M 10.0625 -10.53125 "/></g></g></g><g fill="#000556" fill-opacity="1"><g transform="translate(80.839042, 205.269551)"><g><path d="M 2.53125 0 L 2.53125 -27.59375 L 12.09375 -27.59375 C 13.988281 -27.59375 15.769531 -27.226562 17.4375 -26.5 C 19.113281 -25.78125 20.578125 -24.789062 21.828125 -23.53125 C 23.085938 -22.28125 24.078125 -20.816406 24.796875 -19.140625 C 25.523438 -17.472656 25.890625 -15.691406 25.890625 -13.796875 C 25.890625 -11.890625 25.523438 -10.101562 24.796875 -8.4375 C 24.078125 -6.769531 23.085938 -5.304688 21.828125 -4.046875 C 20.578125 -2.785156 19.113281 -1.796875 17.4375 -1.078125 C 15.769531 -0.359375 13.988281 0 12.09375 0 Z M 9.5625 -6.109375 L 12.09375 -6.109375 C 13.375 -6.109375 14.53125 -6.445312 15.5625 -7.125 C 16.59375 -7.800781 17.40625 -8.71875 18 -9.875 C 18.59375 -11.039062 18.890625 -12.347656 18.890625 -13.796875 C 18.890625 -15.234375 18.59375 -16.535156 18 -17.703125 C 17.40625 -18.867188 16.59375 -19.785156 15.5625 -20.453125 C 14.53125 -21.128906 13.375 -21.46875 12.09375 -21.46875 L 9.5625 -21.46875 Z M 9.5625 -6.109375 "/></g></g></g><g fill="#000556" fill-opacity="1"><g transform="translate(117.597143, 205.269551)"><g><path d="M 11.546875 0.375 C 9.859375 0.375 8.300781 0.09375 6.875 -0.46875 C 5.445312 -1.039062 4.195312 -1.8125 3.125 -2.78125 C 2.050781 -3.75 1.207031 -4.816406 0.59375 -5.984375 L 6.34375 -9.5625 C 6.832031 -8.519531 7.535156 -7.695312 8.453125 -7.09375 C 9.378906 -6.5 10.4375 -6.203125 11.625 -6.203125 C 12.519531 -6.203125 13.195312 -6.378906 13.65625 -6.734375 C 14.113281 -7.085938 14.34375 -7.539062 14.34375 -8.09375 C 14.34375 -8.800781 14.039062 -9.351562 13.4375 -9.75 C 12.84375 -10.144531 12.0625 -10.492188 11.09375 -10.796875 C 10.132812 -11.109375 9.125 -11.445312 8.0625 -11.8125 C 7.007812 -12.1875 6 -12.671875 5.03125 -13.265625 C 4.070312 -13.859375 3.289062 -14.65625 2.6875 -15.65625 C 2.09375 -16.65625 1.796875 -17.953125 1.796875 -19.546875 C 1.796875 -21.503906 2.253906 -23.101562 3.171875 -24.34375 C 4.085938 -25.582031 5.257812 -26.492188 6.6875 -27.078125 C 8.113281 -27.660156 9.546875 -27.953125 10.984375 -27.953125 C 12.703125 -27.953125 14.34375 -27.582031 15.90625 -26.84375 C 17.46875 -26.113281 18.785156 -25.117188 19.859375 -23.859375 L 15.265625 -19.40625 C 13.765625 -21 12.304688 -21.796875 10.890625 -21.796875 C 10.335938 -21.796875 9.863281 -21.65625 9.46875 -21.375 C 9.070312 -21.101562 8.875 -20.660156 8.875 -20.046875 C 8.875 -19.335938 9.171875 -18.789062 9.765625 -18.40625 C 10.367188 -18.03125 11.144531 -17.695312 12.09375 -17.40625 C 13.039062 -17.113281 14.050781 -16.773438 15.125 -16.390625 C 16.195312 -16.003906 17.207031 -15.488281 18.15625 -14.84375 C 19.113281 -14.207031 19.890625 -13.34375 20.484375 -12.25 C 21.078125 -11.164062 21.375 -9.75 21.375 -8 C 21.375 -6.21875 20.921875 -4.707031 20.015625 -3.46875 C 19.117188 -2.226562 17.925781 -1.273438 16.4375 -0.609375 C 14.945312 0.046875 13.316406 0.375 11.546875 0.375 Z M 11.546875 0.375 "/></g></g></g><g fill="#000556" fill-opacity="1"><g transform="translate(149.297526, 205.269551)"><g><path d="M 14.796875 -27.59375 C 16.390625 -27.59375 17.820312 -27.207031 19.09375 -26.4375 C 20.375 -25.664062 21.390625 -24.632812 22.140625 -23.34375 C 22.890625 -22.0625 23.265625 -20.640625 23.265625 -19.078125 C 23.265625 -17.484375 22.890625 -16.066406 22.140625 -14.828125 C 21.390625 -13.585938 20.375 -12.601562 19.09375 -11.875 C 17.820312 -11.15625 16.390625 -10.796875 14.796875 -10.796875 L 9.5625 -10.796875 L 9.5625 0 L 2.53125 0 L 2.53125 -27.59375 Z M 13.65625 -16.5 C 14.476562 -16.5 15.15625 -16.738281 15.6875 -17.21875 C 16.226562 -17.695312 16.5 -18.300781 16.5 -19.03125 C 16.5 -19.738281 16.226562 -20.320312 15.6875 -20.78125 C 15.15625 -21.238281 14.476562 -21.46875 13.65625 -21.46875 L 9.5625 -21.46875 L 9.5625 -16.5 Z M 13.65625 -16.5 "/></g></g></g><g fill="#000556" fill-opacity="1"><g transform="translate(181.82553, 205.269551)"><g><path d="M 19.453125 0 L 17.9375 -4.828125 L 8.28125 -4.828125 L 6.765625 0 L -0.828125 0 L 9.15625 -27.59375 L 17.015625 -27.59375 L 26.984375 0 Z M 10.0625 -10.53125 L 16.1875 -10.53125 L 13.109375 -20.28125 Z M 10.0625 -10.53125 "/></g></g></g><g fill="#000556" fill-opacity="1"><g transform="translate(217.342192, 205.269551)"><g><path d="M 17.890625 -10.9375 L 25.515625 0 L 17.609375 0 L 11.171875 -10.109375 L 9.5625 -10.109375 L 9.5625 0 L 2.53125 0 L 2.53125 -27.59375 L 14.796875 -27.59375 C 16.453125 -27.59375 17.914062 -27.195312 19.1875 -26.40625 C 20.46875 -25.625 21.46875 -24.570312 22.1875 -23.25 C 22.90625 -21.9375 23.265625 -20.484375 23.265625 -18.890625 C 23.265625 -17.023438 22.765625 -15.367188 21.765625 -13.921875 C 20.773438 -12.484375 19.484375 -11.488281 17.890625 -10.9375 Z M 13.65625 -15.765625 C 14.476562 -15.765625 15.15625 -16.03125 15.6875 -16.5625 C 16.226562 -17.101562 16.5 -17.789062 16.5 -18.625 C 16.5 -19.445312 16.226562 -20.125 15.6875 -20.65625 C 15.15625 -21.195312 14.476562 -21.46875 13.65625 -21.46875 L 9.5625 -21.46875 L 9.5625 -15.765625 Z M 13.65625 -15.765625 "/></g></g></g><g fill="#000556" fill-opacity="1"><g transform="translate(251.75534, 205.269551)"><g><path d="M 17.890625 -10.9375 L 25.515625 0 L 17.609375 0 L 11.171875 -10.109375 L 9.5625 -10.109375 L 9.5625 0 L 2.53125 0 L 2.53125 -27.59375 L 14.796875 -27.59375 C 16.453125 -27.59375 17.914062 -27.195312 19.1875 -26.40625 C 20.46875 -25.625 21.46875 -24.570312 22.1875 -23.25 C 22.90625 -21.9375 23.265625 -20.484375 23.265625 -18.890625 C 23.265625 -17.023438 22.765625 -15.367188 21.765625 -13.921875 C 20.773438 -12.484375 19.484375 -11.488281 17.890625 -10.9375 Z M 13.65625 -15.765625 C 14.476562 -15.765625 15.15625 -16.03125 15.6875 -16.5625 C 16.226562 -17.101562 16.5 -17.789062 16.5 -18.625 C 16.5 -19.445312 16.226562 -20.125 15.6875 -20.65625 C 15.15625 -21.195312 14.476562 -21.46875 13.65625 -21.46875 L 9.5625 -21.46875 L 9.5625 -15.765625 Z M 13.65625 -15.765625 "/></g></g></g><g fill="#000556" fill-opacity="1"><g transform="translate(286.168488, 205.269551)"><g><path d="M 15.71875 0.375 C 13.757812 0.375 11.921875 0.00390625 10.203125 -0.734375 C 8.484375 -1.472656 6.976562 -2.492188 5.6875 -3.796875 C 4.40625 -5.097656 3.394531 -6.597656 2.65625 -8.296875 C 1.925781 -9.992188 1.5625 -11.828125 1.5625 -13.796875 C 1.5625 -15.753906 1.925781 -17.582031 2.65625 -19.28125 C 3.394531 -20.988281 4.40625 -22.492188 5.6875 -23.796875 C 6.976562 -25.097656 8.484375 -26.113281 10.203125 -26.84375 C 11.921875 -27.582031 13.757812 -27.953125 15.71875 -27.953125 C 17.6875 -27.953125 19.519531 -27.582031 21.21875 -26.84375 C 22.914062 -26.113281 24.414062 -25.097656 25.71875 -23.796875 C 27.019531 -22.492188 28.039062 -20.988281 28.78125 -19.28125 C 29.519531 -17.582031 29.890625 -15.753906 29.890625 -13.796875 C 29.890625 -11.828125 29.519531 -9.992188 28.78125 -8.296875 C 28.039062 -6.597656 27.019531 -5.097656 25.71875 -3.796875 C 24.414062 -2.492188 22.914062 -1.472656 21.21875 -0.734375 C 19.519531 0.00390625 17.6875 0.375 15.71875 0.375 Z M 15.71875 -6.53125 C 17.101562 -6.53125 18.347656 -6.84375 19.453125 -7.46875 C 20.554688 -8.09375 21.421875 -8.957031 22.046875 -10.0625 C 22.671875 -11.164062 22.984375 -12.410156 22.984375 -13.796875 C 22.984375 -15.203125 22.671875 -16.445312 22.046875 -17.53125 C 21.421875 -18.625 20.554688 -19.484375 19.453125 -20.109375 C 18.347656 -20.742188 17.101562 -21.0625 15.71875 -21.0625 C 14.34375 -21.0625 13.101562 -20.742188 12 -20.109375 C 10.894531 -19.484375 10.019531 -18.625 9.375 -17.53125 C 8.726562 -16.445312 8.40625 -15.203125 8.40625 -13.796875 C 8.40625 -12.410156 8.726562 -11.164062 9.375 -10.0625 C 10.019531 -8.957031 10.894531 -8.09375 12 -7.46875 C 13.101562 -6.84375 14.34375 -6.53125 15.71875 -6.53125 Z M 15.71875 -6.53125 "/></g></g></g><g fill="#000556" fill-opacity="1"><g transform="translate(326.880808, 205.269551)"><g><path d="M 31.359375 -27.59375 L 38.796875 -27.59375 L 31.59375 0 L 23.359375 0 L 19.03125 -17.5625 L 14.671875 0 L 6.4375 0 L -0.734375 -27.59375 L 6.71875 -27.59375 L 10.9375 -9.421875 L 15.8125 -27.59375 L 22.203125 -27.59375 L 27.078125 -9.421875 Z M 31.359375 -27.59375 "/></g></g></g></svg>